<?xml version="1.0" encoding="utf-8"?>
<!-- Generator: Adobe Illustrator 25.4.1, SVG Export Plug-In . SVG Version: 6.00 Build 0)  -->
<svg version="1.1" id="Capa_1" xmlns="http://www.w3.org/2000/svg" xmlns:xlink="http://www.w3.org/1999/xlink" x="0px" y="0px"
	 viewBox="0 0 519.63 461.9" style="enable-background:new 0 0 519.63 461.9;" xml:space="preserve">
<style type="text/css">
	.st0{clip-path:url(#SVGID_00000064319113291906687890000009101207175135656327_);fill:#EC6631;}
</style>
<g>
	<defs>
		<rect id="SVGID_1_" x="15.1" y="-7" width="492.53" height="492.53"/>
	</defs>
	<clipPath id="SVGID_00000000917874469947120220000017682285280397038509_">
		<use xlink:href="#SVGID_1_"  style="overflow:visible;"/>
	</clipPath>
	<path style="clip-path:url(#SVGID_00000000917874469947120220000017682285280397038509_);fill:#EC6631;" d="M261.36,390.07
		c74.87,0,147.47,9.69,216.63,27.86c9.41,2.47,15.24-10.07,7.25-15.63c-63.5-44.17-140.67-70.08-223.89-70.08
		c-83.22,0-160.38,25.91-223.88,70.08c-7.99,5.56-2.16,18.1,7.25,15.63C113.89,399.77,186.49,390.07,261.36,390.07"/>
	<path style="clip-path:url(#SVGID_00000000917874469947120220000017682285280397038509_);fill:#EC6631;" d="M284.88,211.12
		c0-12.85,10.42-23.27,23.27-23.27h4.61c15.1,0,26.29-3.77,33.57-11.33c7.28-7.55,10.91-17.57,10.91-30.07
		c0-12.08-3.6-21.48-10.81-28.21c-7.21-6.72-17.13-10.09-29.76-10.09c-11.4,0-20.94,3.12-28.62,9.37
		c-5.78,4.7-9.39,10.47-10.82,17.3c-0.86,4.09-4.33,7.1-8.51,7.1h-42.44c-5.21,0-9.32-4.53-8.71-9.71
		c1.41-11.81,5.44-22.61,12.1-32.41c8.44-12.42,20.25-22.14,35.42-29.14c15.17-7,31.88-10.5,50.14-10.5
		c31.71,0,56.56,7.59,74.55,22.75c17.98,15.17,26.98,36.07,26.98,62.71c0,13.73-4.19,26.36-12.56,37.89
		c-5.24,7.22-11.5,13.39-18.79,18.51c-5.29,3.72-4.95,11.59,0.69,14.76c9.64,5.43,17.28,12.25,22.94,20.48
		c8.3,12.08,12.46,26.36,12.46,42.83c0,26.64-9.72,47.98-29.14,64.05c-19.43,16.06-45.13,24.09-77.12,24.09
		c-29.93,0-54.4-7.89-73.41-23.68c-16.66-13.83-26.02-31.57-28.09-53.21c-0.48-5.04,3.48-9.4,8.54-9.4l42.75,0
		c4.2,0,7.67,3.07,8.42,7.2c1.46,8.04,5.47,14.84,12.04,20.39c8.44,7.14,18.84,10.71,31.2,10.71c14.14,0,25.23-3.74,33.26-11.22
		c8.03-7.48,12.05-17.4,12.05-29.76c0-29.93-16.47-44.89-49.42-44.89h-4.4C295.29,234.39,284.88,223.97,284.88,211.12"/>
	<path style="clip-path:url(#SVGID_00000000917874469947120220000017682285280397038509_);fill:#EC6631;" d="M86.09,102.65v31.93
		c0,5.88,5.69,10.07,11.3,8.33l33.12-10.27c1-0.31,2.01,0.44,2.01,1.48v236.91c0,5.29,4.29,9.58,9.58,9.58l42.31-0.73
		c5.29,0,9.58-4.29,9.58-9.58V70.45c0-6.27-6.23-10.64-12.12-8.49L91.62,94.76C88.3,95.97,86.09,99.12,86.09,102.65"/>
</g>
</svg>
