<?xml version="1.0" encoding="utf-8"?>
<!-- Generator: Adobe Illustrator 25.4.1, SVG Export Plug-In . SVG Version: 6.00 Build 0)  -->
<svg version="1.1" id="Capa_1" xmlns="http://www.w3.org/2000/svg" xmlns:xlink="http://www.w3.org/1999/xlink" x="0px" y="0px"
	 viewBox="0 0 535 276" style="enable-background:new 0 0 535 276;" xml:space="preserve">
<style type="text/css">
	.st0{fill:#FFFFFF;}
	.st1{fill:#F5B806;}
</style>
<path class="st0" d="M226.04,124.83c-0.72,0.05-23.12,5.36-33.74,7.04c-1.77,0.28-2.88,1.3-3.93,2.62
	c-2.63,3.32-9.5,11.57-10.31,12.37c-1.11,1.11-2.45,1.69-3.99,1.05c-1.54-0.63-2.1-1.95-2.07-3.54c0.04-2.6,0.92-19.15-0.24-21.17
	c-1.46-2.54-9.19-14.97-10.69-19.12c-0.44-1.22-0.81-2.49-0.99-3.76c-0.28-2.02,0.84-3.46,2.87-3.84c2.66-0.49,5.14,0.05,7.55,1.29
	c3.9,2.02,7.87,3.89,11.79,5.87c5.69,2.88,11.56,3.12,17.53,1.16c7.41-2.43,21.92-7.41,21.92-7.41s-6.3-13.21-9.16-18.13
	c-0.9-1.55-1.73-3.14-2.53-4.74c-0.75-1.51-1.24-3.06,0.06-4.55c1.3-1.49,3-1.22,4.52-0.66c2.74,1.01,5.53,2.03,8.04,3.48
	c4.08,2.36,7.97,5.06,11.9,7.66c3.11,2.06,10.53,7.74,10.53,7.74s20.37-6.51,24.66-8.03c7.23-2.57,13.99-4.02,21.51-3.37
	c1.94,0.16,3.94,0.26,5.17,2.18c1.48,2.3,2.09,4.75,1.36,7.44c-0.66,2.43-2.01,4.44-3.9,6.08c-1.23,1.07-2.48,2.12-3.8,3.06
	c-8.34,5.92-16.27,12.45-25.36,17.28c-1.65,0.88-2.91,2.07-3.93,3.55c-3.43,4.94-6.89,9.87-10.25,14.87
	c-3.72,5.54-7.28,11.18-11.02,16.71c-2.84,4.2-6.3,7.87-10.15,11.17c-1.41,1.2-2.9,2.31-4.82,1.34c-2.07-1.04-2.26-3.05-2.11-5.06
	c0.07-0.96,0.38-1.91,0.6-2.85C225.03,143.78,226.23,125.34,226.04,124.83z"/>
<g>
	<path class="st0" d="M62.96,179.29c-10.29-1.02-10.29-3.36-10.29-4.9c0-4.31,6.03-4.78,8.62-4.78c2.66,0,8.85,0.58,8.85,5.91v2
		h23.89v-2c0-16.67-13.25-27.88-32.96-27.88c-19.41,0-32.96,10.72-32.96,26.07c0,15.93,10.41,25.16,30.94,27.42
		c10.32,1.13,12.34,2.7,12.34,5.02c0,4.52-6.74,5.01-9.64,5.01c-4.66,0-10.21-1.14-10.21-6.59v-2H27.31v2
		c0,17.95,12.96,28.67,34.66,28.67c20.53,0,34.32-10.66,34.32-26.52C96.29,190.47,85.39,181.5,62.96,179.29z M61.97,229.23
		c-18.64,0-29.67-8.23-30.6-22.67h16.34c0.98,5.42,6.07,8.59,14.03,8.59c8.54,0,13.64-3.37,13.64-9.01c0-6.7-7.52-8.08-15.91-9
		c-18.68-2.05-27.37-9.5-27.37-23.44c0-13.2,11.64-22.07,28.96-22.07c16.5,0,27.85,8.71,28.89,21.88h-16
		c-0.97-4.93-5.64-7.91-12.66-7.91c-7.9,0-12.62,3.28-12.62,8.78c0,6.6,6.68,8.17,13.9,8.88c20.56,2.03,29.73,9.25,29.73,23.44
		C92.29,220.18,80.11,229.23,61.97,229.23z"/>
	<path class="st0" d="M144.12,147.64c-25.6,0-43.47,17.6-43.47,42.79s17.88,42.8,43.47,42.8s43.47-17.6,43.47-42.8
		S169.72,147.64,144.12,147.64z M144.12,229.23c-23.24,0-39.47-15.95-39.47-38.8c0-22.84,16.23-38.79,39.47-38.79
		s39.47,15.95,39.47,38.79C183.6,213.28,167.36,229.23,144.12,229.23z"/>
	<path class="st0" d="M144.12,167.3c-13.36,0-22.34,9.3-22.34,23.13c0,13.84,8.98,23.13,22.34,23.13c13.36,0,22.34-9.3,22.34-23.13
		C166.46,176.6,157.48,167.3,144.12,167.3z M144.12,209.57c-11.14,0-18.34-7.51-18.34-19.13c0-11.62,7.2-19.13,18.34-19.13
		c11.14,0,18.34,7.51,18.34,19.13C162.46,202.06,155.26,209.57,144.12,209.57z"/>
	<path class="st0" d="M250.74,199.08c-2.6,6.66-8.43,10.48-15.99,10.48c-10.59,0-17.44-7.51-17.44-19.13
		c0-11.62,6.84-19.13,17.44-19.13c7.02,0,12.48,3.25,15.38,9.17l0.55,1.12h24.33l-0.57-2.45c-3.71-15.95-14.33-26.7-29.24-30.23
		c-0.41,0.62-0.82,1.24-1.24,1.86c-0.39,0.57-0.79,1.14-1.2,1.7c13.53,2.61,23.16,11.4,27.14,25.12h-16.77
		c-3.7-6.55-10.33-10.28-18.38-10.28c-12.82,0-21.44,9.3-21.44,23.13c0,13.84,8.62,23.13,21.44,23.13c8.67,0,15.74-4.37,19.17-11.75
		h16.54c-4.26,17.22-17.74,27.42-36.5,27.42c-22.24,0-37.78-15.95-37.78-38.8c0-16.75,8.36-29.78,21.58-35.55
		c0.09-1.06,0.33-2,0.52-2.76c0.06-0.22,0.12-0.45,0.17-0.67c0.09-0.41,0.18-0.84,0.27-1.3c-16.16,5.71-26.54,20.7-26.54,40.28
		c0,25.2,17.18,42.8,41.78,42.8c21.68,0,36.99-12.35,40.95-33.04l0.46-2.38h-24.13L250.74,199.08z"/>
	<path class="st0" d="M282.58,231.99h24.68v-83.1h-24.68V231.99z M286.58,152.88h16.68v75.1h-16.68V152.88z"/>
	<path class="st0" d="M359.5,147.64c-25.6,0-43.47,17.6-43.47,42.79s17.88,42.8,43.47,42.8s43.47-17.6,43.47-42.8
		S385.09,147.64,359.5,147.64z M359.5,229.23c-23.24,0-39.47-15.95-39.47-38.8c0-22.84,16.23-38.79,39.47-38.79
		s39.47,15.95,39.47,38.79C398.97,213.28,382.74,229.23,359.5,229.23z"/>
	<path class="st0" d="M359.5,167.3c-13.36,0-22.34,9.3-22.34,23.13c0,13.84,8.98,23.13,22.34,23.13s22.34-9.3,22.34-23.13
		C381.84,176.6,372.86,167.3,359.5,167.3z M359.5,209.57c-11.14,0-18.34-7.51-18.34-19.13c0-11.62,7.2-19.13,18.34-19.13
		s18.34,7.51,18.34,19.13C377.84,202.06,370.64,209.57,359.5,209.57z"/>
	<path class="st0" d="M443.43,179.29c-10.29-1.02-10.29-3.36-10.29-4.9c0-4.31,6.03-4.78,8.62-4.78c2.66,0,8.85,0.58,8.85,5.91v2
		h23.89v-2c0-16.67-13.25-27.88-32.96-27.88c-19.41,0-32.96,10.72-32.96,26.07c0,15.93,10.41,25.16,30.94,27.42
		c10.32,1.13,12.34,2.7,12.34,5.02c0,4.52-6.74,5.01-9.64,5.01c-4.66,0-10.21-1.14-10.21-6.59v-2h-24.23v2
		c0,17.95,12.96,28.67,34.66,28.67c20.53,0,34.32-10.66,34.32-26.52C476.76,190.47,465.85,181.5,443.43,179.29z M442.44,229.23
		c-18.64,0-29.67-8.23-30.6-22.67h16.34c0.98,5.42,6.07,8.59,14.03,8.59c8.54,0,13.64-3.37,13.64-9.01c0-6.7-7.52-8.08-15.91-9
		c-18.68-2.05-27.38-9.5-27.38-23.44c0-13.2,11.64-22.07,28.96-22.07c16.5,0,27.85,8.71,28.89,21.88h-16
		c-0.97-4.93-5.64-7.91-12.66-7.91c-7.9,0-12.62,3.28-12.62,8.78c0,6.6,6.68,8.17,13.9,8.88c20.56,2.03,29.72,9.25,29.72,23.44
		C472.76,220.18,460.57,229.23,442.44,229.23z"/>
</g>
<g>
	<path class="st0" d="M154.27,131.13c-0.61-0.01-1.19-0.02-1.76,0.03c-1.5,0.12-2.99,0.27-4.49,0.41c-1.29,0.12-2.58,0.24-3.87,0.36
		c-6.66,0.58-12.66,0.59-18.34,0.02c-7.78-0.77-14.46-2.11-20.41-4.1c-6.68-2.24-12.54-6.24-17.4-11.89
		c-2.3-2.68-3.59-5.71-3.83-9.01c-0.24-3.29,0.5-5.94,2.26-8.11c0.17-0.2,0.22-0.44,0.27-0.68c0.02-0.1,0.05-0.22,0.09-0.35
		l0.22-0.72l-0.75,0.08c-1.67,0.17-2.5,1.11-3.04,1.92c-1.21,1.81-1.88,3.88-2.02,6.16c-0.27,4.62,1.14,8.85,4.19,12.59
		c5.07,6.2,11.35,10.62,18.68,13.14c2.42,0.83,4.94,1.55,7.51,2.14c7.76,1.78,15.06,2.66,22.12,2.66c2.13,0,4.24-0.08,6.34-0.24
		c4.84-0.37,9.06-1.08,12.9-2.17l0.25-0.07c0.75-0.21,1.6-0.44,2.4-1.3l0.79-0.84l-1.15,0
		C154.89,131.14,154.57,131.14,154.27,131.13z"/>
	<path class="st0" d="M119.93,143.38c-0.12-0.1-0.25-0.22-0.44-0.26c-0.82-0.2-1.64-0.4-2.46-0.57c-6.7-1.44-13.33-3.48-19.72-6.06
		c-7.46-3.02-13.4-7.19-18.15-12.75c-2.14-2.51-3.96-4.83-4.57-7.84c-0.06-0.29-0.27-0.48-0.47-0.66c-0.08-0.07-0.18-0.16-0.28-0.26
		l-0.62-0.64l-0.23,0.86c-0.05,0.21-0.11,0.39-0.16,0.55c-0.1,0.34-0.2,0.63-0.21,0.94c-0.07,1.29,0.2,2.47,0.8,3.51l0.27,0.47
		c0.57,0.99,1.17,2.01,1.88,2.94c3.87,5.07,8.6,9.23,14.07,12.36c3.37,1.93,6.93,3.53,10.59,4.75c4.5,1.5,9.84,3.11,15.37,3.65
		c0.84,0.08,1.68,0.15,2.53,0.15c0.57,0,1.15-0.03,1.74-0.11l1.21-0.17l-0.98-0.73C120.03,143.46,119.98,143.41,119.93,143.38z"/>
	<path class="st0" d="M103.26,118.36c0.6,0.42,1.24,0.79,1.86,1.15l0.32,0.18c4.94,2.89,10.66,4.77,18,5.9
		c5.5,0.85,11.48,1.26,18.55,1.26c1.46,0,2.98-0.02,4.54-0.05c1.7-0.04,3.42-0.22,5.08-0.39l1.01-0.1c0.88-0.09,2.05-0.32,3.36-1.32
		l0.69-0.53l-0.8-0.33c-1.12-0.46-1.96-0.44-2.8-0.42l-2.74,0.06c-3.15,0.07-6.41,0.15-9.62,0.15c-6.75,0-12.83-0.43-18.51-1.33
		c-7.47-1.19-13.63-3.39-18.86-6.76c-0.2-0.12-0.44-0.28-0.73-0.32c-0.28-0.04-0.8,0.05-1.01,0.41c-0.21,0.35-0.08,0.91,0.18,1.16
		C102.22,117.52,102.71,117.98,103.26,118.36z"/>
</g>
<g>
	<path class="st1" d="M320.59,69.31l-0.91,6.73l-15.2-2.06l3.91-28.9l14.88,2.02l-0.91,6.73l-7.96-1.08l-0.58,4.25l7.24,0.98
		l-0.89,6.6l-7.24-0.98l-0.62,4.58L320.59,69.31z"/>
	<path class="st1" d="M354.67,51.36l-3.94,29.1l-2.93-0.4l-9.2-15.67l-0.45,4.48l-1.29,9.49l-6.77-0.92l3.95-29.14l2.93,0.4
		l9.23,15.5l0.51-4.98l1.19-8.79L354.67,51.36z"/>
	<path class="st1" d="M393.26,56.58l-0.04,0.33l-14.08,27.44l-3.17-0.43L369.5,53.7l0.04-0.33l7.28,0.99l1.42,8.56l0.98,8.54
		l3.22-8.01l3.52-7.85L393.26,56.58z"/>
	<path class="st1" d="M402.09,57.78l6.93,0.94l-3.91,28.9l-6.93-0.94L402.09,57.78z"/>
	<path class="st1" d="M438.38,91.66l-0.06,0.45l-7.16-0.97l-0.76-3.89l-7.76-1.05l-1.77,3.54l-7.12-0.97l0.06-0.45l14.62-27.28
		l3.17,0.43L438.38,91.66z M425.55,80.13l3.64,0.49l-0.82-7.3L425.55,80.13z"/>
	<path class="st1" d="M446.36,83.66l0.48-3.51l6.65,0.9l-0.46,3.38c-0.26,1.94,0.49,3.22,2.31,3.47c1.62,0.22,2.65-0.82,2.91-2.76
		l2.63-19.4l6.93,0.94l-2.65,19.53c-0.79,5.86-5.09,9.27-10.71,8.51C448.72,93.94,445.57,89.52,446.36,83.66z"/>
	<path class="st1" d="M491.05,92.41l-0.91,6.73l-15.2-2.06l3.91-28.9l14.88,2.02l-0.91,6.73l-7.96-1.08l-0.58,4.25l7.24,0.98
		l-0.89,6.6l-7.24-0.98l-0.62,4.58L491.05,92.41z"/>
</g>
<path class="st1" d="M517.88,48.1c-2.66-3.5-6.52-5.75-10.85-6.33l-194.91-26.4c-4.34-0.59-8.64,0.56-12.14,3.22
	c-3.5,2.66-5.75,6.52-6.34,10.85l-5.72,42.25c1.35,0,2.7,0.04,4.06,0.15l0.21,0.02c0.23,0.02,0.48,0.04,0.74,0.07l5.66-41.81
	c0.41-3.01,1.97-5.69,4.41-7.54c2.44-1.86,5.43-2.66,8.44-2.24l194.91,26.4c3.01,0.41,5.69,1.97,7.54,4.41
	c1.86,2.44,2.65,5.43,2.24,8.44l-7.72,57.01c-0.84,6.24-6.61,10.63-12.85,9.79l-102.66-13.91c-5.73-0.77-11.38,1.37-15.14,5.75
	l-7.64,7.79l-0.15,0.25c-1.05,1.74-3.15,2.58-5,2c-1.11-0.35-2.02-1.12-2.55-2.17l-6.43-11.3c-2.53-4.93-7.32-8.31-12.81-9.06
	l-42.53-5.76c-1.88-0.25-3.63-0.96-5.13-2.05c-0.72,0.58-1.46,1.17-2.25,1.73c-0.63,0.45-1.26,0.91-1.89,1.36
	c2.4,2.12,5.37,3.48,8.6,3.92l42.53,5.76c3.89,0.53,7.27,2.93,9.05,6.43l6.43,11.3c1.15,2.23,3.1,3.87,5.48,4.62
	c0.91,0.29,1.83,0.42,2.74,0.42c3.11,0,6.09-1.59,7.87-4.35l7.3-7.45l0.12-0.13c2.65-3.12,6.66-4.66,10.72-4.1l102.66,13.91
	c8.99,1.21,17.26-5.1,18.48-14.07l7.72-57.01C521.69,55.91,520.54,51.6,517.88,48.1z"/>
</svg>
